<svg id="Layer_1" data-name="Layer 1" xmlns="http://www.w3.org/2000/svg" viewBox="0 0 1041.14 753.46"><defs><style>.cls-1{fill:#fff;}</style></defs><path class="cls-1" d="M1034.39,134.67a8.16,8.16,0,1,1-8.16-8.15A8.15,8.15,0,0,1,1034.39,134.67Z" transform="translate(-51.21 -41)"/><path class="cls-1" d="M1026.28,108.44v0Z" transform="translate(-51.21 -41)"/><path class="cls-1" d="M1002.59,134.76s.07,0,.26,0Z" transform="translate(-51.21 -41)"/><path class="cls-1" d="M1031.84,134.9l12-.1,6.19,0-6.25,0c-4,0-8.62-.08-11.86-.09-1.74,0-3.3,0-5.27,0,1.07-1.08,1.94-1.94,2.9-2.92l6.71-6.82,3.48-3.52s-1.23,1.22-3.56,3.51-4.92,4.83-6.76,6.66c-1,.95-1.84,1.82-2.92,2.91,0-2,0-4.37,0-6.8,0-5.46-.07-10.92-.08-12,0-3.87,0-6.14-.06-6.91,0,.84,0,3.41-.06,7.54,0,1.08,0,6.42-.07,11.7,0,2.31,0,4.54,0,6.47-1.07-1.08-1.94-2-2.91-2.9-1.85-1.83-4.5-4.42-6.77-6.66s-3.57-3.53-3.56-3.51l3.48,3.52,6.71,6.82,2.91,2.92-6.11,0-10.8.07-6.22,0,6.78.06,10.53.06,5.82,0-3.39,3.41-6.07,6.15L1013,148l3.87-3.81c.55-.54,3.29-3.24,6-5.92l3.23-3.2v.08c0,2.13,0,3.84,0,5.76,0,3.58.07,8.81.1,13.28s0,6.91,0,6.88,0-2.41,0-6.94.09-9.58.11-13.19c0-1.93,0-3.67,0-5.87h0l3.23,3.2c2.7,2.68,5.44,5.38,6,5.92l3.87,3.81-3.49-3.55c-.54-.56-3.3-3.35-6.07-6.15l-3.38-3.41h5.24Z" transform="translate(-51.21 -41)"/><path class="cls-1" d="M1012.88,148.17l.15-.15Z" transform="translate(-51.21 -41)"/><path class="cls-1" d="M1039.69,148.17l-.15-.15Z" transform="translate(-51.21 -41)"/><circle class="cls-1" cx="1055.6" cy="452.62" r="11.48" transform="translate(524.74 1455.22) rotate(-88.52)"/><path class="cls-1" d="M1055.66,415.67s0,.1,0,.4A3.27,3.27,0,0,0,1055.66,415.67Z" transform="translate(-51.21 -41)"/><path class="cls-1" d="M1022.3,452.75h0Z" transform="translate(-51.21 -41)"/><path class="cls-1" d="M1063.49,452.94l16.83-.14,8.73-.06-8.81-.05c-5.62,0-12.14-.11-16.71-.13-2.45,0-4.65,0-7.42,0,1.51-1.51,2.73-2.73,4.09-4.11,2.55-2.58,6.26-6.37,9.45-9.6l4.9-5-5,4.95c-3.2,3.16-6.93,6.81-9.52,9.38-1.37,1.35-2.59,2.57-4.11,4.1,0-2.84,0-6.16-.05-9.58,0-7.69-.09-15.38-.1-16.9,0-5.46-.08-8.66-.08-9.74,0,1.18,0,4.8-.09,10.62,0,1.52-.06,9-.1,16.48,0,3.25,0,6.39,0,9.12-1.52-1.53-2.74-2.75-4.11-4.1-2.6-2.57-6.33-6.22-9.53-9.38s-5-5-5-4.95l4.9,5c3.18,3.23,6.9,7,9.45,9.6,1.36,1.38,2.57,2.6,4.09,4.11l-8.6,0-15.21.09-8.76.08,9.56.07c1.37,0,8.13.06,14.83.1l8.18,0-4.77,4.81-8.55,8.66-4.91,5,5.45-5.36,8.44-8.34,4.55-4.51v.12c0,3,0,5.4,0,8.11,0,5,.1,12.41.14,18.7s.07,9.73.07,9.69,0-3.39.07-9.78.12-13.49.14-18.57c0-2.72,0-5.18,0-8.27h0l4.55,4.51,8.44,8.34,5.45,5.36-4.91-5-8.56-8.66-4.76-4.81h.08C1058.89,453,1061.05,453,1063.49,452.94Z" transform="translate(-51.21 -41)"/><path class="cls-1" d="M1036.79,471.63l.21-.21Z" transform="translate(-51.21 -41)"/><path class="cls-1" d="M1074.55,471.63l-.21-.21Z" transform="translate(-51.21 -41)"/><path class="cls-1" d="M103.56,764.69a9.19,9.19,0,1,1-9.19-9.19A9.18,9.18,0,0,1,103.56,764.69Z" transform="translate(-51.21 -41)"/><path class="cls-1" d="M94.43,735.11v0Z" transform="translate(-51.21 -41)"/><path class="cls-1" d="M67.72,764.79h0Z" transform="translate(-51.21 -41)"/><path class="cls-1" d="M100.69,764.94l13.47-.11,7,0-7,0c-4.49,0-9.71-.09-13.37-.11H94.78c1.22-1.21,2.19-2.18,3.28-3.29,2-2.06,5-5.1,7.56-7.68l3.92-4-4,4c-2.56,2.52-5.55,5.44-7.63,7.5l-3.29,3.28c0-2.27,0-4.93,0-7.67,0-6.15-.07-12.3-.09-13.52,0-4.37-.06-6.93-.06-7.79,0,.94,0,3.83-.07,8.49,0,1.22,0,7.24-.08,13.19,0,2.6,0,5.12,0,7.3L91,761.14c-2.08-2.06-5.06-5-7.62-7.5s-4-4-4-4,1.35,1.35,3.93,4,5.51,5.62,7.56,7.68c1.09,1.11,2.06,2.08,3.27,3.29l-6.88,0L75,764.73l-7,.06,7.64.06,11.87.07,6.55,0-3.81,3.85-6.85,6.93-3.93,4,4.36-4.29,6.76-6.67,3.64-3.62v.1c0,2.4,0,4.32,0,6.49,0,4,.09,9.93.12,15s.05,7.79.05,7.75,0-2.71.06-7.82.09-10.8.11-14.86c0-2.18,0-4.15,0-6.62h0l3.65,3.62,6.75,6.67c2.4,2.35,3.88,3.81,4.36,4.29l-3.93-4L98.6,768.8,94.78,765h.07C97,765,98.74,765,100.69,764.94Z" transform="translate(-51.21 -41)"/><path class="cls-1" d="M79.33,779.9s0,0,.16-.17Z" transform="translate(-51.21 -41)"/><path class="cls-1" d="M109.54,779.9l-.17-.17Z" transform="translate(-51.21 -41)"/><path class="cls-1" d="M67,384.75A4.06,4.06,0,1,1,63,380.7,4.05,4.05,0,0,1,67,384.75Z" transform="translate(-51.21 -41)"/><path class="cls-1" d="M63,371.71v0Z" transform="translate(-51.21 -41)"/><path class="cls-1" d="M51.21,384.79h0Z" transform="translate(-51.21 -41)"/><path class="cls-1" d="M65.75,384.86l5.94-.05,3.08,0-3.11,0c-2,0-4.29,0-5.9,0H63.14l1.45-1.45,3.33-3.39,1.73-1.75-1.77,1.75-3.36,3.31-1.45,1.44c0-1,0-2.17,0-3.38,0-2.71,0-5.42,0-6,0-1.93,0-3.06,0-3.44,0,.42,0,1.69,0,3.75,0,.54,0,3.19,0,5.81,0,1.15,0,2.26,0,3.22l-1.45-1.44-3.36-3.31-1.77-1.75,1.73,1.75,3.33,3.39,1.45,1.45h-3l-5.37,0-3.09,0,3.37,0,5.24,0h2.89l-1.69,1.7-3,3.06-1.74,1.76,1.92-1.89,3-2.94,1.61-1.6V385c0,1.06,0,1.9,0,2.86,0,1.78,0,4.38,0,6.6s0,3.43,0,3.42,0-1.2,0-3.45.05-4.77.05-6.56c0-1,0-1.82,0-2.91h0l1.61,1.6,3,2.94,1.92,1.89-1.74-1.76-3-3.06-1.69-1.69h2.61Z" transform="translate(-51.21 -41)"/><path class="cls-1" d="M56.33,391.45l.07-.07Z" transform="translate(-51.21 -41)"/><path class="cls-1" d="M69.65,391.45l-.07-.07Z" transform="translate(-51.21 -41)"/><path class="cls-1" d="M105.71,203.18a11.21,11.21,0,1,1-11.2-10.89A11,11,0,0,1,105.71,203.18Z" transform="translate(-51.21 -41)"/><path class="cls-1" d="M94.58,168.13s0,.09,0,.38Z" transform="translate(-51.21 -41)"/><path class="cls-1" d="M62,203.3h0Z" transform="translate(-51.21 -41)"/><path class="cls-1" d="M102.21,203.48l16.43-.13,8.51-.06-8.59,0c-5.48,0-11.85-.1-16.31-.12-2.39,0-4.54,0-7.24,0,1.48-1.43,2.66-2.59,4-3.9,2.49-2.44,6.11-6,9.22-9.1l4.78-4.71-4.89,4.69-9.3,8.9c-1.33,1.27-2.53,2.43-4,3.88,0-2.69,0-5.84,0-9.08,0-7.3-.09-14.59-.1-16,0-5.17-.08-8.21-.08-9.23,0,1.12,0,4.55-.08,10.07,0,1.45-.07,8.58-.1,15.63,0,3.08,0,6.07,0,8.65-1.49-1.45-2.68-2.61-4-3.88l-9.3-8.9-4.89-4.69,4.78,4.71c3.11,3.06,6.73,6.66,9.22,9.1,1.33,1.31,2.51,2.47,4,3.9l-8.39,0c-6.75,0-13.5.08-14.84.09l-8.55.07,9.32.07,14.48.09,8,0-4.66,4.56c-3.8,3.74-7.59,7.47-8.34,8.22L76.36,221l5.32-5.09L89.91,208c1.58-1.52,3.12-3,4.45-4.28v.12c0,2.84,0,5.12,0,7.69,0,4.77.1,11.77.15,17.74s.06,9.23.06,9.19,0-3.22.07-9.28.11-12.8.14-17.61c0-2.58,0-4.91,0-7.84h0c1.33,1.29,2.87,2.76,4.45,4.28l8.23,7.91L112.8,221l-4.8-4.74c-.75-.75-4.54-4.48-8.34-8.22L95,203.49h.08C97.72,203.5,99.83,203.49,102.21,203.48Z" transform="translate(-51.21 -41)"/><path class="cls-1" d="M76.16,221.2l.2-.19Z" transform="translate(-51.21 -41)"/><path class="cls-1" d="M113,221.2l-.2-.19Z" transform="translate(-51.21 -41)"/><path class="cls-1" d="M944.58,53.87a5.37,5.37,0,1,1-5.36-5.36A5.36,5.36,0,0,1,944.58,53.87Z" transform="translate(-51.21 -41)"/><path class="cls-1" d="M1054.37,267a5.37,5.37,0,1,1-5.37-5.37A5.36,5.36,0,0,1,1054.37,267Z" transform="translate(-51.21 -41)"/><path class="cls-1" d="M97.77,43.68A2.69,2.69,0,1,1,95.09,41,2.68,2.68,0,0,1,97.77,43.68Z" transform="translate(-51.21 -41)"/><path class="cls-1" d="M220.12,83a3.78,3.78,0,1,1-3.78-3.78A3.78,3.78,0,0,1,220.12,83Z" transform="translate(-51.21 -41)"/><path class="cls-1" d="M256.19,188.69a5.37,5.37,0,1,1-5.37-5.36A5.37,5.37,0,0,1,256.19,188.69Z" transform="translate(-51.21 -41)"/><path class="cls-1" d="M988.31,618a6.76,6.76,0,1,1-6.76-6.75A6.76,6.76,0,0,1,988.31,618Z" transform="translate(-51.21 -41)"/><path class="cls-1" d="M137.82,494.45a4.29,4.29,0,1,1-4.29-4.3A4.29,4.29,0,0,1,137.82,494.45Z" transform="translate(-51.21 -41)"/><path class="cls-1" d="M668.3,103.94a5.72,5.72,0,1,1-5.72-5.72A5.72,5.72,0,0,1,668.3,103.94Z" transform="translate(-51.21 -41)"/><path class="cls-1" d="M1092.35,658.51a2.91,2.91,0,1,1-2.9-2.9A2.91,2.91,0,0,1,1092.35,658.51Z" transform="translate(-51.21 -41)"/><path class="cls-1" d="M1008.78,753.59a3.83,3.83,0,1,1-3.82-3.83A3.82,3.82,0,0,1,1008.78,753.59Z" transform="translate(-51.21 -41)"/><path class="cls-1" d="M1014,615.68a5.2,5.2,0,1,1-5.2-5.2A5.19,5.19,0,0,1,1014,615.68Z" transform="translate(-51.21 -41)"/><path class="cls-1" d="M1011.62,659.08a3.48,3.48,0,1,1-3.48-3.48A3.48,3.48,0,0,1,1011.62,659.08Z" transform="translate(-51.21 -41)"/><path class="cls-1" d="M994.31,695.51a2.67,2.67,0,1,1-2.67-2.66A2.66,2.66,0,0,1,994.31,695.51Z" transform="translate(-51.21 -41)"/><path class="cls-1" d="M122.63,600.43a2.91,2.91,0,1,1-2.9-2.9A2.9,2.9,0,0,1,122.63,600.43Z" transform="translate(-51.21 -41)"/><path class="cls-1" d="M67.23,585.26a3.35,3.35,0,1,1-3.35-3.34A3.35,3.35,0,0,1,67.23,585.26Z" transform="translate(-51.21 -41)"/></svg>